<svg width="7" height="12" viewBox="0 0 7 12" fill="none" xmlns="http://www.w3.org/2000/svg">
<path d="M5.9956 1.1281C5.86112 1.22967 5.45966 1.53293 5.22824 1.71353C4.76473 2.07526 4.14882 2.56952 3.53474 3.10269C2.91756 3.63856 2.31648 4.20148 1.87461 4.70158C1.65305 4.95234 1.48469 5.17262 1.37511 5.35439C1.27204 5.52535 1.25061 5.62634 1.25061 5.62634C1.25061 5.62634 1.27205 5.72436 1.3751 5.89531C1.48468 6.07709 1.65304 6.29737 1.87461 6.54813C2.31648 7.04822 2.91756 7.61115 3.53475 8.14701C4.14884 8.68018 4.76475 9.17444 5.22827 9.53617C5.45969 9.71678 5.86058 10.0196 5.99506 10.1212C6.27299 10.3259 6.33294 10.7175 6.12825 10.9955C5.92355 11.2734 5.53231 11.3328 5.25437 11.1281L5.2523 11.1265C5.11129 11.02 4.69539 10.7059 4.45923 10.5216C3.98525 10.1517 3.35116 9.64302 2.71524 9.09089C2.08243 8.54146 1.43351 7.93673 0.937882 7.3758C0.690699 7.09605 0.468435 6.81247 0.30458 6.54067C0.151067 6.28602 -2.88085e-06 5.96361 0 5.62485C2.88093e-06 5.28609 0.151072 4.96368 0.304585 4.70904C0.46844 4.43723 0.690703 4.15366 0.937884 3.87391C1.43351 3.31298 2.08242 2.70825 2.71523 2.15882C3.35114 1.60669 3.98522 1.098 4.4592 0.728099C4.69553 0.543666 5.11148 0.229494 5.25217 0.123226L5.25393 0.1219C5.53186 -0.0827958 5.92351 -0.0237162 6.12821 0.254218C6.33289 0.532144 6.27351 0.923396 5.9956 1.1281Z" fill="#161616"/>
</svg>
